_________________________  Visit us at _________________________
  
http://p2pdl.com  ____________________________  http://p2pdl.com

Parental Guidance 2012 BRRip 720p x264 AAC - PRiSTiNE

Genre: Comedy
Plot: Artie and Diane agree to look after their three 
grandkids when their type-A helicopter parents 
need to leave town for work. Problems arise when the kids' 
21st-century behavior collides with Artie and Diane's 
old-school methods.
Director: Andy Fickman
Stars: Billy Crystal, Bette Midler, Marisa Tomei 
Rated: Rated PG for some rude humor

Info: 
http://www.imdb.com/title/tt1047540/

General
Complete name                  : Parental Guidance 2012 BRRip 720p x264 AAC - PRiSTiNE.mp4
Format                         : MPEG-4
Format profile                 : Base Media
File size                      : 662 MiB
Duration                       : 1h 44mn
Overall bit rate mode          : Variable
Overall bit rate               : 884 Kbps

Source                         : 720p BluRay AMIABLE (Thanks)

Video
Format                         : AVC
Format/Info                    : Advanced Video Codec
Format profile                 : High 10@L4.1
Codec ID/Info                  : Advanced Video Coding
Bit rate                       : 797 Kbps
Width                          : 1 280 pixels
Height                         : 688 pixels
Display aspect ratio           : 1.85:1
Frame rate mode                : Constant
Frame rate                     : 23.976 fps
Bit depth                      : 10 bits
Scan type                      : Progressive
Stream size                    : 596 MiB (90%)

Audio
Format                         : AAC
Format/Info                    : Advanced Audio Codec
Bit rate mode                  : Variable
Bit rate                       : 84.0 Kbps
Channel(s)                     : 2 channels
Channel positions              : Front: L R
Sampling rate                  : 48.0 KHz / 24.0 KHz
Stream size                    : 62.9 MiB (10%)
Language                       : English

Subtitle                       : Yes (English)

Screens: 
http://www.ultraimg.com/images/EYO3X.jpg 
http://www.ultraimg.com/images/9zwi.jpg 
http://www.ultraimg.com/images/bn2Qy.jpg 
http://www.ultraimg.com/images/QFPub.jpg 
http://www.ultraimg.com/images/sOalP.jpg
----------------------------------------------------------------------------------------------------
Encoded using revolutionary 10bit encoding, which enables us to provide you more crispier 
and sharper images at small sizes, just make sure you follow our instructions without a fault.
Recommend to you to use latest version of VLC player. Install K-Lite Codec Pack or shark007 codecs
in case of any kind of problem in playback (For non-VLC Media Player users). Alternatively, install
Core AVC codecs, the fastest decoder that there is coupled with Community Center Codec Pack and play
on Windows Media Player Classic. Check sample to be sure.
Enjoy!

Encoder Notes:Looking For Early Access To Anything You Can Provide DVDScr, R5, DVDR, BluRay, Direct
Audio, Music Releases and Seedboxes. We require dedicated servers, so as to do more 
and fast releases of movies.
If You Got anything to offer please contact us at "prg@hush.com".

Fan Page:   
http://www.fb.me/p2pdl